<?xml version="1.0" encoding="UTF-8"?>
<svg version="1.1" xmlns="http://www.w3.org/2000/svg" width="3219" height="1073">
<path d="M0 0 C1.45448471 1.2513584 2.89363227 2.52089713 4.3125 3.8125 C5.29476562 4.65748047 5.29476562 4.65748047 6.296875 5.51953125 C23.1630592 21.00268834 34.30149212 45.30799641 35.421875 68.03076172 C36.29100964 94.41443027 28.11258793 115.772668 14.18359375 137.79296875 C12.42698947 140.62773933 10.81874323 143.49558631 9.25 146.4375 C6.79639811 151.02553606 4.09119413 155.38192258 1.21875 159.71875 C-0.45541582 162.4358388 -1.9904707 165.17430646 -3.5078125 167.98046875 C-6.55469858 173.61445878 -9.78049904 179.12552376 -13.0625 184.625 C-16.80890951 190.92648101 -20.52684542 197.23764782 -24.125 203.625 C-26.63434949 208.05450162 -29.29560211 212.2900203 -32.17504883 216.48510742 C-33.71940383 218.8615943 -35.07012656 221.27823699 -36.40625 223.77734375 C-39.8492842 230.14467862 -43.44104532 236.42028835 -47.0625 242.6875 C-47.3924295 243.25898773 -47.72235901 243.83047546 -48.06228638 244.41928101 C-52.80844913 252.63582118 -57.63512337 260.78022939 -62.6875 268.8125 C-67.06743064 275.82206395 -71.29347478 282.84399756 -75.19140625 290.1328125 C-77.28618377 293.8848161 -79.63343674 297.45710409 -81.96875 301.0625 C-83.656797 303.7633752 -85.18729676 306.50360883 -86.6875 309.3125 C-89.16126982 313.94423923 -91.88231356 318.3419244 -94.78125 322.71875 C-97.0233551 326.35757632 -99.03476812 330.09636109 -101.06787109 333.85498047 C-103.70245862 338.66586278 -106.47599934 343.3935535 -109.25 348.125 C-109.85642334 349.16188965 -110.46284668 350.1987793 -111.08764648 351.26708984 C-116.71842064 360.88581138 -122.38630022 370.48252584 -128.06542969 380.07275391 C-130.83777564 384.75536473 -133.60630225 389.44023154 -136.375 394.125 C-136.91471436 395.03757568 -137.45442871 395.95015137 -138.01049805 396.89038086 C-140.50926053 401.11715274 -143.00297847 405.34665667 -145.48046875 409.5859375 C-149.04458749 415.68101075 -152.60538954 421.75525913 -156.4375 427.6875 C-158.62842426 431.08088501 -160.6524935 434.50341685 -162.5625 438.0625 C-177.07097149 465.00130648 -195.11321452 485.39644542 -224.6875 495.8125 C-229.32367529 497.13366477 -233.92485338 498.08067869 -238.6875 498.8125 C-239.53828125 498.95429687 -240.3890625 499.09609375 -241.265625 499.2421875 C-269.91128477 502.93549583 -294.71745016 493.23688959 -317.921875 477.29296875 C-318.50453125 476.80441406 -319.0871875 476.31585937 -319.6875 475.8125 C-319.6875 475.1525 -319.6875 474.4925 -319.6875 473.8125 C-320.26242187 473.55855469 -320.83734375 473.30460937 -321.4296875 473.04296875 C-337.04868498 464.53088535 -345.68388005 443.15005504 -350.9375 427.3125 C-358.66356767 400.88291019 -353.5918914 375.20197728 -340.64990234 351.50292969 C-338.95925926 348.53336787 -337.07117037 345.72471854 -335.109375 342.9296875 C-332.93202476 339.68758907 -331.14856464 336.25185632 -329.3046875 332.8125 C-324.29235854 323.51426656 -318.91058509 314.49780606 -313.26538086 305.57470703 C-310.3492983 300.94125671 -307.68000772 296.22373285 -305.11328125 291.38671875 C-303.05172777 287.66462631 -300.71849688 284.13228466 -298.40625 280.5625 C-296.718203 277.8616248 -295.18770324 275.12139117 -293.6875 272.3125 C-291.66862145 268.53247208 -289.51726678 264.90933293 -287.1875 261.3125 C-284.32855355 256.88957847 -281.75958736 252.38065615 -279.26953125 247.7421875 C-274.26292458 238.47069366 -268.89662906 229.47574644 -263.26538086 220.57470703 C-260.3492983 215.94125671 -257.68000772 211.22373285 -255.11328125 206.38671875 C-253.578617 203.61591397 -251.90868742 200.97115333 -250.1875 198.3125 C-247.33427901 193.89843602 -244.76899409 189.39940499 -242.28515625 184.76953125 C-237.88374222 176.6231488 -233.32973907 168.63483896 -228.1015625 160.98828125 C-226.00524499 157.76273193 -224.24024744 154.37809793 -222.42578125 150.98828125 C-218.68983956 144.16284171 -214.65447686 137.5053432 -210.6875 130.8125 C-208.6032044 127.2922355 -206.52016639 123.77122858 -204.4375 120.25 C-203.89714111 119.33718262 -203.35678223 118.42436523 -202.80004883 117.48388672 C-199.84554316 112.4868827 -196.9079863 107.48063727 -193.9921875 102.4609375 C-193.37762695 101.40334229 -192.76306641 100.34574707 -192.12988281 99.25610352 C-190.95790731 97.23694905 -189.78784042 95.21668499 -188.62011719 93.19506836 C-185.30182929 87.47777463 -181.85724208 81.86822521 -178.26049805 76.3215332 C-176.1391039 72.93777291 -174.27642593 69.43647628 -172.390625 65.91796875 C-169.12187024 59.95773932 -165.61465813 54.13537363 -162.1484375 48.28857422 C-160.57795777 45.62684203 -159.02254225 42.95666155 -157.46875 40.28515625 C-145.1466635 19.14504835 -133.32458244 1.13217852 -111.6875 -11.1875 C-110.83671875 -11.67734375 -109.9859375 -12.1671875 -109.109375 -12.671875 C-73.45901552 -31.79557777 -31.05868313 -24.17799025 0 0 Z " fill="#06A9F4" transform="translate(608.6875,298.1875)"/>
<path d="M0 0 C1.18996078 0.00081573 1.18996078 0.00081573 2.40396118 0.00164795 C14.78302602 0.04061945 26.52357085 0.73651697 38.4375 4.375 C39.57421143 4.72038818 39.57421143 4.72038818 40.73388672 5.07275391 C53.27702238 9.00088146 53.27702238 9.00088146 57.37298584 11.60601807 C65.63844315 16.65964604 74.35077817 16.10681014 83.6953125 16.08203125 C85.45223694 16.09516578 87.20914634 16.11047536 88.96603394 16.12785339 C93.55928603 16.16751126 98.15214137 16.17788136 102.74554443 16.18188477 C107.44506723 16.19125265 112.14436043 16.22868886 116.84375 16.26367188 C126.04165612 16.32805174 135.23938824 16.36145239 144.4375 16.375 C144.6617 19.04116216 144.86714971 21.70669267 145.0625 24.375 C145.12695312 25.11878906 145.19140625 25.86257813 145.2578125 26.62890625 C145.70410529 33.04436516 145.22840819 38.68863772 141.5625 44.1875 C131.28594782 51.38108653 112.70469033 52.375 100.4375 52.375 C100.76363281 53.00664062 101.08976562 53.63828125 101.42578125 54.2890625 C105.09876715 61.80839058 107.02970273 69.14480055 108.4375 77.375 C108.57027344 78.14328125 108.70304687 78.9115625 108.83984375 79.703125 C111.21844209 96.77689935 109.06287289 114.18157223 103.4375 130.375 C102.7775 130.375 102.1175 130.375 101.4375 130.375 C101.33566406 131.08011719 101.23382812 131.78523437 101.12890625 132.51171875 C100.33835188 135.78559645 99.03226266 138.26084467 97.375 141.1875 C96.82714844 142.16332031 96.27929688 143.13914062 95.71484375 144.14453125 C95.29332031 144.88058594 94.87179688 145.61664062 94.4375 146.375 C93.7775 146.375 93.1175 146.375 92.4375 146.375 C92.19 147.096875 91.9425 147.81875 91.6875 148.5625 C88.55126737 155.61902342 82.41604271 160.70882032 76.4375 165.375 C75.57125 166.15875 74.705 166.9425 73.8125 167.75 C49.92697027 187.53397412 14.50000451 191.44963743 -15.12011719 188.75488281 C-21.63832557 188.12315151 -27.92040619 187.34574725 -34.3125 185.875 C-37.34847634 185.33697888 -38.9583368 185.12579577 -41.81640625 186.3046875 C-43.9931986 187.83298573 -45.73423123 189.44450545 -47.5625 191.375 C-48.21347656 192.03886719 -48.86445313 192.70273437 -49.53515625 193.38671875 C-55.09308838 199.37832936 -56.96633573 203.74102064 -56.83203125 211.93359375 C-56.47231008 215.19193767 -55.23568575 217.58635708 -53.5625 220.375 C-53.5625 221.035 -53.5625 221.695 -53.5625 222.375 C-52.5725 222.74625 -52.5725 222.74625 -51.5625 223.125 C-49.23150233 224.09624903 -47.09834077 225.13543724 -44.875 226.3125 C-37.23778991 230.15580897 -29.0819478 231.87226391 -20.65625 232.97265625 C-19.71825562 233.09745865 -18.78026123 233.22226105 -17.81384277 233.35084534 C-6.80601992 234.72165436 4.24431699 235.17915411 15.32006836 235.65426636 C90.39430579 238.93816257 90.39430579 238.93816257 116.4375 256.375 C117.13488281 256.82488281 117.83226563 257.27476562 118.55078125 257.73828125 C129.63119315 265.37623509 136.95597998 277.55245352 139.8125 290.625 C142.94561318 312.84749346 138.1143335 332.86740327 125.4375 351.375 C124.94636719 352.11492187 124.45523438 352.85484375 123.94921875 353.6171875 C122.84001511 355.2466371 121.64767003 356.8190671 120.4375 358.375 C119.7775 358.375 119.1175 358.375 118.4375 358.375 C118.18613281 358.96410156 117.93476563 359.55320312 117.67578125 360.16015625 C116.28294599 362.65144202 114.8166428 363.99800414 112.625 365.8125 C110.30983135 367.74255356 108.15831124 369.66335752 106.05859375 371.83203125 C84.74640197 392.50898631 50.0191441 400.95997529 21.4375 403.375 C20.27081787 403.47989746 20.27081787 403.47989746 19.08056641 403.58691406 C-2.41991562 405.41805983 -25.56665311 404.52872976 -46.5625 399.375 C-47.28195801 399.21161133 -48.00141602 399.04822266 -48.74267578 398.87988281 C-71.25210492 393.76216852 -93.74071036 384.86224119 -109.5625 367.375 C-110.16578125 366.715 -110.7690625 366.055 -111.390625 365.375 C-115.62139866 360.46601071 -118.76279422 355.46255423 -121.5 349.625 C-121.94158447 348.68648193 -121.94158447 348.68648193 -122.39208984 347.72900391 C-125.66347116 340.4193596 -125.76996734 333.49354235 -125.8125 325.625 C-125.833125 324.6865625 -125.85375 323.748125 -125.875 322.78125 C-125.95363073 308.54908872 -120.09417826 296.20491702 -110.36328125 285.91796875 C-100.6977783 277.14217737 -89.37474768 270.78279464 -77.5625 265.375 C-78.49191406 264.75753906 -79.42132812 264.14007812 -80.37890625 263.50390625 C-90.5527655 256.59535695 -99.50195423 249.37083907 -102.11328125 236.703125 C-103.80946387 224.13662423 -103.83010582 210.27640873 -96.5625 199.375 C-95.9025 199.375 -95.2425 199.375 -94.5625 199.375 C-94.376875 198.715 -94.19125 198.055 -94 197.375 C-89.57027109 188.13034836 -80.21139305 180.60456324 -71.5625 175.375 C-70.5725 175.045 -69.5825 174.715 -68.5625 174.375 C-69.82666994 170.58249019 -70.9546748 170.36051545 -74.375 168.4375 C-91.67437807 157.73477194 -104.62994688 139.24652419 -109.375 119.5625 C-113.59858059 99.77566486 -114.5322224 74.62087017 -104.5625 56.375 C-104.0571875 55.36050781 -103.551875 54.34601563 -103.03125 53.30078125 C-99.26729084 45.93539754 -95.05549694 39.55332359 -89.5625 33.375 C-88.93214844 32.63894531 -88.30179688 31.90289062 -87.65234375 31.14453125 C-65.68645081 7.23175762 -31.13834715 -0.0804661 0 0 Z M-48.21484375 53.015625 C-49.38565588 54.42487 -50.47903324 55.89754533 -51.5625 57.375 C-52.50416016 58.22384766 -52.50416016 58.22384766 -53.46484375 59.08984375 C-62.69695962 69.14717668 -64.87701498 84.91342538 -64.4831543 97.94921875 C-64.15151217 104.81263868 -63.30326093 111.03623573 -60.5625 117.375 C-60.23894531 118.22707031 -59.91539062 119.07914063 -59.58203125 119.95703125 C-56.89122815 126.99848151 -54.14295781 132.17502795 -48.5625 137.375 C-48.09328125 137.83777344 -47.6240625 138.30054688 -47.140625 138.77734375 C-32.17396394 152.74375766 -13.16852272 154.96851234 6.32275391 154.47265625 C10.81816651 154.26506389 15.08793649 153.49187356 19.4375 152.375 C20.29730469 152.15714844 21.15710937 151.93929687 22.04296875 151.71484375 C36.18352463 147.79998486 47.78271468 139.7737198 55.42578125 127.0703125 C64.7553301 109.95270101 64.58554133 89.88343429 59.4375 71.375 C58.7775 71.375 58.1175 71.375 57.4375 71.375 C57.25574219 70.78332031 57.07398437 70.19164062 56.88671875 69.58203125 C54.4176251 61.82021379 51.92553852 57.53894903 45.4375 52.375 C44.55578125 51.41980469 44.55578125 51.41980469 43.65625 50.4453125 C31.24448899 38.86391578 12.23712288 37.05206483 -3.8515625 37.2265625 C-19.6785348 37.85964139 -36.53166907 41.41530972 -48.21484375 53.015625 Z M-73.25 297.296875 C-73.683125 297.98265625 -74.11625 298.6684375 -74.5625 299.375 C-75.036875 300.12265625 -75.51125 300.8703125 -76 301.640625 C-80.62638563 309.78937241 -81.60917521 318.54304032 -79.625 327.6875 C-79.0990625 329.5128125 -79.0990625 329.5128125 -78.5625 331.375 C-77.9025 331.375 -77.2425 331.375 -76.5625 331.375 C-76.500625 332.035 -76.43875 332.695 -76.375 333.375 C-73.65441658 343.42023108 -66.0664387 348.51366348 -57.45703125 353.625 C-26.51192337 369.95891262 16.85645353 369.60758636 49.84765625 359.921875 C65.07512084 355.048572 78.45398485 346.83970388 87.4375 333.375 C92.00463525 324.44617156 93.09723021 313.13554178 90.25 303.5 C88.71411789 299.49675173 86.78539481 297.12771351 83.4375 294.375 C82.86 293.88257813 82.2825 293.39015625 81.6875 292.8828125 C69.38406648 282.91107807 53.0961966 281.24685489 37.8125 279.8125 C36.54486816 279.68883057 35.27723633 279.56516113 33.97119141 279.43774414 C22.05994025 278.31128463 10.12472932 277.68064066 -1.82250977 277.07836914 C-9.9478582 276.66417256 -18.03482398 276.13381402 -26.125 275.25 C-27.64838309 275.09322039 -29.1718166 274.93692954 -30.6953125 274.78125 C-33.04689278 274.5342153 -35.39673299 274.26841495 -37.7421875 273.96875 C-51.70366104 272.86132434 -65.75053584 286.47378468 -73.25 297.296875 Z " fill="#09AAF4" transform="translate(2670.5625,454.625)"/>
<path d="M0 0 C1.00434082 0.48307617 2.00868164 0.96615234 3.04345703 1.46386719 C10.14197312 4.95130355 16.33288405 8.70010827 22.4375 13.75 C24.16631257 15.04214056 25.89546508 16.33382646 27.625 17.625 C29.85546875 19.3046875 29.85546875 19.3046875 31.4375 20.75 C31.4375 21.41 31.4375 22.07 31.4375 22.75 C32.05625 23.018125 32.675 23.28625 33.3125 23.5625 C35.4375 24.75 35.4375 24.75 37.4375 27.75 C33.58999352 35.53495468 29.72092155 43.30937627 25.6875 51 C25.15640625 52.01578125 24.6253125 53.0315625 24.078125 54.078125 C21.7131368 57.92967722 19.76691424 60.30686192 15.4375 61.75 C5.70352852 62.97992419 0.15072047 59.27217411 -7.625 54 C-35.04579125 35.52905034 -64.71713934 28.30491359 -97.5625 33.75 C-98.62597656 33.92273438 -99.68945312 34.09546875 -100.78515625 34.2734375 C-116.33832796 37.4971097 -131.66229967 46.54498989 -141.03515625 59.40234375 C-150.58711097 74.08450433 -153.48502563 90.68670025 -150.28515625 107.8515625 C-146.43672706 123.28688391 -134.52492487 134.48011569 -121.421875 142.7265625 C-104.36906139 152.32354953 -85.2650966 157.86800463 -66.85290527 164.25939941 C8.7496194 190.51050068 8.7496194 190.51050068 30.4375 219.75 C30.97246094 220.43449219 31.50742188 221.11898437 32.05859375 221.82421875 C36.76887814 228.24733382 39.22758504 235.4770608 41.80761719 242.93798828 C42.33449665 244.45368572 42.88686249 245.96049197 43.4453125 247.46484375 C46.79138362 256.70714698 46.62397008 266.23550441 46.62280273 275.95947266 C46.62498095 277.9823133 46.64317535 280.00459959 46.66210938 282.02734375 C46.67974942 294.03433178 45.18115098 305.33699905 41.875 316.875 C41.62322998 317.75736328 41.37145996 318.63972656 41.11206055 319.54882812 C37.79534527 330.59208302 33.01086233 342.20252272 26.4375 351.75 C25.7775 351.75 25.1175 351.75 24.4375 351.75 C24.19 352.45125 23.9425 353.1525 23.6875 353.875 C21.25438875 359.47115587 17.82818488 363.57349487 13.4375 367.75 C12.550625 368.678125 11.66375 369.60625 10.75 370.5625 C8.4375 372.75 8.4375 372.75 6.4375 372.75 C6.4375 373.41 6.4375 374.07 6.4375 374.75 C-21.15966568 399.36871947 -57.28668825 408.21220687 -93.5 408.125 C-94.35389313 408.12445618 -95.20778625 408.12391235 -96.08755493 408.12335205 C-110.22136808 408.08211338 -123.79056974 407.15476319 -137.5625 403.75 C-138.43310059 403.53569336 -139.30370117 403.32138672 -140.20068359 403.10058594 C-171.85048383 395.00700218 -199.75085711 378.00425686 -222.5625 354.75 C-220.0636317 347.99800737 -216.24047596 341.91040585 -212.5625 335.75 C-212.21848145 335.1710498 -211.87446289 334.59209961 -211.52001953 333.99560547 C-204.41338239 322.19674371 -204.41338239 322.19674371 -197.5625 319.75 C-188.84805779 318.48500032 -182.8925923 322.91444432 -176.08984375 327.984375 C-174.55797254 329.15373476 -173.02807898 330.32568902 -171.5 331.5 C-163.2309376 337.72648239 -154.75488293 343.01232072 -145.5625 347.75 C-144.93802979 348.08596191 -144.31355957 348.42192383 -143.67016602 348.76806641 C-121.20903649 360.56260844 -91.11561266 363.66266338 -66.5625 357.75 C-65.93005371 357.6046582 -65.29760742 357.45931641 -64.64599609 357.30957031 C-44.42366821 352.53399347 -28.70401197 342.80693886 -17.31640625 325.046875 C-14.75364812 320.22957465 -13.13864897 315.31264921 -11.5703125 310.09765625 C-10.5625 306.75 -10.5625 306.75 -9.46875 304.1328125 C-5.44600218 293.55576004 -6.20746423 276.23357226 -10.31347656 265.85107422 C-15.99054721 253.30556538 -23.75176064 243.9730968 -35.5625 236.75 C-37.05910156 235.82960938 -37.05910156 235.82960938 -38.5859375 234.890625 C-57.05477635 224.32492772 -77.98255777 218.55100448 -98.1875 212.25 C-138.50936717 199.67086187 -175.70083142 184.95272298 -196.5625 145.75 C-208.76428401 120.56116865 -208.25391065 87.19734582 -199.31640625 61.11328125 C-188.91812738 33.00707825 -167.68606745 9.68063055 -140.5625 -3.25 C-126.93633461 -9.42734736 -113.31675616 -13.00874154 -98.5625 -15.25 C-97.47066406 -15.44335938 -96.37882812 -15.63671875 -95.25390625 -15.8359375 C-63.07528717 -19.44539107 -29.13323817 -14.06160354 0 0 Z " fill="#09AAF4" transform="translate(2060.5625,349.25)"/>
<path d="M0 0 C17.16 0 34.32 0 52 0 C52 82.83 52 165.66 52 251 C70.40445581 250.76907215 70.40445581 250.76907215 84.0625 241.25 C84.90554688 240.37085938 85.74859375 239.49171875 86.6171875 238.5859375 C89.81607102 235.11436227 92.94051969 231.59470854 96 228 C99.86903437 223.51258865 103.75721611 219.14176522 108 215 C113.9698076 209.19864954 113.9698076 209.19864954 119.4375 202.9375 C119.953125 202.298125 120.46875 201.65875 121 201 C121.66 201 122.32 201 123 201 C123.25394531 200.41734375 123.50789063 199.8346875 123.76953125 199.234375 C125.13320333 196.75811967 126.64225203 195.19479374 128.6875 193.25 C131.27921381 190.72296354 133.77086051 188.18699116 136.125 185.4375 C143.18535791 177.24557232 150.72800167 169.46563018 158.1484375 161.6015625 C158.83752197 160.87090576 159.52660645 160.14024902 160.23657227 159.38745117 C161.61353996 157.92821844 162.99162178 156.47003616 164.37084961 155.01293945 C168.0057154 151.16250265 171.54011281 147.25775228 175 143.25 C179.487645 138.21319768 184.30159021 134.37977905 191 133 C192.71021712 132.91491667 194.42341518 132.88223618 196.13574219 132.88647461 C197.15649841 132.88655014 198.17725464 132.88662567 199.22894287 132.88670349 C200.32386047 132.89186478 201.41877808 132.89702606 202.546875 132.90234375 C204.23638275 132.90446617 204.23638275 132.90446617 205.96002197 132.90663147 C209.55670835 132.91222801 213.15333244 132.9247799 216.75 132.9375 C219.18880118 132.94251545 221.62760334 132.94707828 224.06640625 132.95117188 C230.04429208 132.9621963 236.02214159 132.97893102 242 133 C240.67180898 135.74245424 239.40687451 137.86095798 237.3046875 140.07421875 C236.76142822 140.65099365 236.21816895 141.22776855 235.65844727 141.82202148 C235.06990967 142.43762939 234.48137207 143.0532373 233.875 143.6875 C233.26261475 144.335979 232.65022949 144.98445801 232.01928711 145.65258789 C230.01680559 147.77216473 228.00833158 149.88596676 226 152 C223.8778012 154.2433972 221.75764731 156.48869324 219.63916016 158.7355957 C218.29300443 160.16293858 216.94512715 161.58866057 215.59521484 163.01245117 C211.74924821 167.0828234 208.04671211 171.23115634 204.46069336 175.53344727 C203.97866455 176.01740967 203.49663574 176.50137207 203 177 C202.34 177 201.68 177 201 177 C201 177.66 201 178.32 201 179 C200.34 179 199.68 179 199 179 C198.60361328 179.88945312 198.60361328 179.88945312 198.19921875 180.796875 C196.95629575 183.08029054 195.69598354 184.47426723 193.8125 186.25 C191.32547737 188.66042029 188.99359193 191.11175214 186.75 193.75 C183.81720415 197.15838437 180.69927872 200.34399864 177.5 203.5 C173.74575053 207.20360192 170.184009 210.99985351 166.765625 215.015625 C163.93344484 218.19869474 160.87307151 221.14721518 157.8203125 224.1171875 C155.93616102 225.87753339 155.93616102 225.87753339 155 228 C154.34 228 153.68 228 153 228 C152.67 228.99 152.34 229.98 152 231 C151.34 231 150.68 231 150 231 C149.6596875 231.804375 149.6596875 231.804375 149.3125 232.625 C146.43578585 237.83048274 142.16897477 241.83102523 138 246 C136.89030437 247.28691974 135.78659496 248.57901502 134.6875 249.875 C131.63770756 253.40423579 128.35341492 256.44246637 124.80078125 259.45703125 C122.7600079 261.20563314 120.86078709 263.06168011 119 265 C119.57363281 265.25007813 120.14726563 265.50015625 120.73828125 265.7578125 C129.4236683 270.52802508 135.31677192 280.19082364 141 288 C143.30542184 291.02197187 145.65424207 294.00927808 148 297 C148.78761719 298.01320313 149.57523438 299.02640625 150.38671875 300.0703125 C155.46916816 306.59283665 160.65074761 313.01683392 165.9375 319.375 C171.07131049 325.55475524 175.96364515 331.8682194 180.73974609 338.32714844 C184.49490775 343.38512128 188.44511794 348.21401674 192.515625 353.0234375 C195.65875426 356.78926218 198.67293888 360.64664821 201.68823242 364.51489258 C205.19091387 368.99742186 208.7705635 373.41156543 212.375 377.8125 C217.42104801 383.98230119 222.29395289 390.26526685 227.10473633 396.61962891 C231.50147223 402.40505334 236.05109069 408.05353973 240.6875 413.6484375 C249 423.73765506 249 423.73765506 249 427 C242.32889084 427.05096287 235.65783242 427.08584348 228.98657227 427.10986328 C226.71995162 427.11988328 224.45334377 427.13350297 222.18676758 427.15087891 C218.9174482 427.17530362 215.64830064 427.18652343 212.37890625 427.1953125 C210.87367149 427.21079636 210.87367149 427.21079636 209.33802795 427.22659302 C200.4046457 427.22799828 192.82948261 426.72776056 186.1796875 420.3984375 C181.90934279 415.69952773 178.05541527 410.66981296 174.23242188 405.60449219 C173.08167391 404.1063314 171.87845865 402.64888139 170.671875 401.1953125 C169 399 169 399 169 397 C168.34 397 167.68 397 167 397 C165.68510443 395.40553551 164.45103401 393.74439913 163.25 392.0625 C159.39040821 386.75777898 155.31917108 381.66860182 151.125 376.625 C146.35245924 370.87483549 141.65577146 365.07957244 137.05883789 359.18823242 C132.62982587 353.51297224 128.13180955 347.89405026 123.62890625 342.27734375 C123.18305176 341.71901855 122.73719727 341.16069336 122.27783203 340.58544922 C121.08623139 339.10699018 119.8701695 337.64833921 118.65234375 336.19140625 C117 334 117 334 117 332 C116.34 332 115.68 332 115 332 C113.66015625 330.5234375 113.66015625 330.5234375 112.0625 328.375 C111.43730469 327.54871094 110.81210938 326.72242188 110.16796875 325.87109375 C109.09482422 324.44990234 109.09482422 324.44990234 108 323 C104.35864445 318.31327921 100.68616691 313.65153666 97 309 C96.44376953 308.2972998 95.88753906 307.59459961 95.31445312 306.87060547 C93.59120318 304.70006652 91.85937309 302.53665731 90.125 300.375 C89.58987793 299.70009521 89.05475586 299.02519043 88.50341797 298.32983398 C84.90899905 293.87426393 81.58579465 289.86193155 76 288 C74.15533558 287.85110253 72.30642725 287.7520899 70.45703125 287.68359375 C69.38388672 287.64169922 68.31074219 287.59980469 67.20507812 287.55664062 C65.52575195 287.49766602 65.52575195 287.49766602 63.8125 287.4375 C62.68134766 287.39431641 61.55019531 287.35113281 60.38476562 287.30664062 C57.58996646 287.20050901 54.79507838 287.09845615 52 287 C52.00092179 287.715447 52.00184359 288.43089399 52.00279331 289.1680212 C52.02484774 306.5514238 52.04141116 323.93482286 52.05181217 341.31823635 C52.05697531 349.72461384 52.06401834 358.13098201 52.07543945 366.53735352 C52.08538575 373.86167932 52.0918533 381.18599837 52.09408849 388.51033074 C52.09539569 392.39090787 52.09848212 396.2714657 52.10573006 400.15203667 C52.11248942 403.80039557 52.11461713 407.44872711 52.11310768 411.09709167 C52.11351637 413.08288419 52.118912 415.0686737 52.12442017 417.05445862 C52.1230455 418.2254007 52.12167084 419.39634277 52.12025452 420.60276794 C52.12117631 421.62687995 52.1220981 422.65099195 52.12304783 423.70613766 C52 426 52 426 51 427 C49.44000952 427.09846967 47.87559456 427.12798618 46.3125 427.12939453 C45.31476563 427.13254669 44.31703125 427.13569885 43.2890625 427.13894653 C42.20367188 427.1369223 41.11828125 427.13489807 40 427.1328125 C38.89398437 427.13376923 37.78796875 427.13472595 36.6484375 427.13571167 C34.30468692 427.13639367 31.96093447 427.13453804 29.6171875 427.13037109 C26.01558212 427.12502314 22.41410147 427.13031547 18.8125 427.13671875 C16.54166639 427.13605797 14.27083286 427.13477682 12 427.1328125 C10.91460938 427.13483673 9.82921875 427.13686096 8.7109375 427.13894653 C7.71320313 427.13579437 6.71546875 427.13264221 5.6875 427.12939453 C4.80449219 427.12859894 3.92148438 427.12780334 3.01171875 427.12698364 C1 427 1 427 0 426 C-0.09815597 423.7430785 -0.12371089 421.48300714 -0.12304783 419.22395229 C-0.12420167 418.50355126 -0.12535552 417.78315023 -0.12654433 417.04091886 C-0.12921787 414.59630277 -0.12468282 412.15175089 -0.12025452 409.70713806 C-0.12069007 407.94910989 -0.12156468 406.19108179 -0.12284368 404.43305403 C-0.1250918 399.57823473 -0.12106305 394.72343727 -0.11606562 389.86862075 C-0.11176582 384.6422773 -0.11320721 379.41593518 -0.1139679 374.18959045 C-0.11449343 365.12665958 -0.11134355 356.06373588 -0.10573006 347.00080681 C-0.09761904 333.89717011 -0.09500025 320.7935369 -0.09374207 307.68989796 C-0.09155092 286.43250488 -0.08488913 265.17511562 -0.07543945 243.91772461 C-0.06626696 223.26245137 -0.05918533 202.60717916 -0.05493164 181.9519043 C-0.05466892 180.6797069 -0.05440619 179.40750951 -0.05413551 178.09676068 C-0.05283052 171.71481697 -0.0515668 165.33287325 -0.05032361 158.95092952 C-0.03994904 105.96728356 -0.0220547 52.98364228 0 0 Z " fill="#08AAF4" transform="translate(1485,326)"/>
<path d="M0 0 C0.93199219 0.2165625 1.86398438 0.433125 2.82421875 0.65625 C20.28850799 4.93946254 35.19506767 12.44060195 49 24 C49.74894531 24.61488281 50.49789062 25.22976563 51.26953125 25.86328125 C58.16862751 31.72810073 64.9305335 38.31603198 68 47 C68.66 47 69.32 47 70 47 C71.17441535 49.10016623 72.33964012 51.20458755 73.5 53.3125 C73.83386719 53.90740234 74.16773437 54.50230469 74.51171875 55.11523438 C76.06825114 57.95828844 77 59.70660988 77 63 C77.66 63 78.32 63 79 63 C83.39453125 76.18359375 83.39453125 76.18359375 84.19433594 78.59082031 C84.73301845 80.20164426 85.27798487 81.81037991 85.82910156 83.41699219 C87.1813269 87.38120835 88.40711512 91.23737258 89.125 95.375 C89.27195312 96.18710937 89.41890625 96.99921875 89.5703125 97.8359375 C90.81434811 106.99656332 91.18218693 116.07307877 91.1875 125.3125 C91.19974609 126.45267578 91.21199219 127.59285156 91.22460938 128.76757812 C91.22654297 129.87166016 91.22847656 130.97574219 91.23046875 132.11328125 C91.23457764 133.10110596 91.23868652 134.08893066 91.24291992 135.10668945 C90.90662536 139.11214355 90.09364845 142.67850813 87.5 145.8125 C84.01218813 148.5736844 80.55331644 148.14983013 76.30079651 148.15148926 C75.49674454 148.15572167 74.69269257 148.15995408 73.8642754 148.16431475 C71.15503922 148.17738868 68.44583251 148.18337648 65.73657227 148.18945312 C63.80028095 148.19739175 61.86399143 148.2057794 59.92770386 148.21458435 C55.75068747 148.23266958 51.57367511 148.2476751 47.39663887 148.26036072 C40.79645879 148.28054101 34.1963233 148.30819896 27.59617615 148.33703613 C13.58497162 148.39718988 -0.42625961 148.4490006 -14.4375 148.5 C-29.55821331 148.55504762 -44.67891312 148.61150294 -59.79958302 148.67754889 C-66.36528213 148.70594191 -72.93097594 148.72952238 -79.49670589 148.74947357 C-83.57654543 148.76283903 -87.65636031 148.78025277 -91.73617935 148.79878426 C-93.63289454 148.80655519 -95.52961759 148.81261823 -97.42634392 148.81687737 C-100.00887581 148.82290439 -102.59131123 148.83494316 -105.17381287 148.84851074 C-105.93022692 148.84880673 -106.68664097 148.84910272 -107.46597666 148.84940767 C-110.58182068 148.87131312 -113.02058875 149.00686292 -116 150 C-115.75264638 160.01782175 -114.90797363 169.75508688 -113.125 179.625 C-112.96354492 180.53588379 -112.80208984 181.44676758 -112.63574219 182.38525391 C-111.59492195 187.87734905 -110.09490935 192.81844231 -108 198 C-107.71898438 198.7940625 -107.43796875 199.588125 -107.1484375 200.40625 C-104.76043915 206.87073039 -101.46572301 212.70951557 -97.99755859 218.64257812 C-95 223.80413622 -95 223.80413622 -95 226 C-94.34 226 -93.68 226 -93 226 C-91.5546875 227.50390625 -91.5546875 227.50390625 -89.875 229.5625 C-86.70687138 233.31756613 -83.30569764 236.45265657 -79.50390625 239.5546875 C-79.00761719 240.03164063 -78.51132813 240.50859375 -78 241 C-78 241.66 -78 242.32 -78 243 C-77.47792969 243.09539062 -76.95585937 243.19078125 -76.41796875 243.2890625 C-73.17185908 244.24349216 -70.29472495 245.80779384 -67.3125 247.375 C-43.49162352 259.82862841 -14.41233406 259.77527592 10.92578125 252.04931641 C20.42077735 248.95606314 29.23070215 244.74225784 38 240 C39.04285156 239.43796875 40.08570312 238.8759375 41.16015625 238.296875 C46.16770162 235.58783313 46.16770162 235.58783313 51.09765625 232.7421875 C56.34742903 229.75722723 61.00975684 229.1709006 67 230 C71.77755554 231.80485431 74.53357765 235.64440308 77 240 C77 240.66 77 241.32 77 242 C77.66 242 78.32 242 79 242 C80.76171875 244.046875 80.76171875 244.046875 82.6875 246.75 C83.65236328 248.07257813 83.65236328 248.07257813 84.63671875 249.421875 C86 252 86 252 85.8515625 254.12890625 C78.62099626 270.01625135 54.36919309 280.95933838 39 287 C-4.14838644 302.89327948 -51.76131929 303.93986658 -94 285 C-100.43086005 281.9659928 -106.31113418 278.22866539 -112.1875 274.25 C-112.76556396 273.86078369 -113.34362793 273.47156738 -113.93920898 273.07055664 C-115.33156489 272.10042222 -116.67157376 271.0559827 -118 270 C-118 269.34 -118 268.68 -118 268 C-118.57105469 267.74347656 -119.14210938 267.48695313 -119.73046875 267.22265625 C-130.51317432 261.41372881 -137.59514379 250.04514982 -144 240 C-144.47050781 239.27683594 -144.94101563 238.55367187 -145.42578125 237.80859375 C-153.11190301 225.56466394 -158.48219456 212.8235658 -161.9921875 198.828125 C-162.85397022 195.18087565 -162.85397022 195.18087565 -164.03515625 192.56640625 C-165.48642694 188.70614372 -165.97733528 184.75780857 -166.5625 180.6875 C-166.69180908 179.79740234 -166.82111816 178.90730469 -166.9543457 177.99023438 C-168.07141026 170.0028297 -168.77383433 162.06657552 -169 154 C-169.02191406 153.25878906 -169.04382812 152.51757812 -169.06640625 151.75390625 C-169.51895873 133.62163691 -169.24060194 114.4862296 -164 97 C-163.77441406 96.2471875 -163.54882812 95.494375 -163.31640625 94.71875 C-162.59216191 92.4600897 -161.79660775 90.23412265 -161 88 C-160.51273438 86.48212891 -160.51273438 86.48212891 -160.015625 84.93359375 C-156.71916646 75.01035041 -152.06720719 66.118765 -147 57 C-146.34 57 -145.68 57 -145 57 C-144.80019531 56.17628906 -144.60039062 55.35257813 -144.39453125 54.50390625 C-142.57174034 49.92395262 -139.83892078 46.68352847 -136.6875 42.9375 C-136.11837891 42.24333984 -135.54925781 41.54917969 -134.96289062 40.83398438 C-131.81703739 37.03078867 -128.657455 33.32083968 -125 30 C-124.34 30 -123.68 30 -123 30 C-123 29.34 -123 28.68 -123 28 C-121.02866014 26.62464661 -119.02318078 25.29788956 -117 24 C-116.2265625 23.37480469 -115.453125 22.74960937 -114.65625 22.10546875 C-100.49685677 10.88206735 -83.39901526 4.2626987 -66 0 C-65.34467285 -0.16516113 -64.6893457 -0.33032227 -64.01416016 -0.50048828 C-44.1634171 -5.27434268 -19.67416942 -5.34543471 0 0 Z M-75 46 C-75.80824219 46.47179687 -76.61648437 46.94359375 -77.44921875 47.4296875 C-93.48748329 57.30316736 -105.02040516 74.60109396 -110.24609375 92.44921875 C-111.00545374 95.01845229 -112.00500642 97.51251606 -113 100 C-113.66 105.28 -114.32 110.56 -115 116 C-62.53 116 -10.06 116 44 116 C44.17274983 105.09847493 44.17274983 105.09847493 42.3125 95.125 C42.13750977 94.47080078 41.96251953 93.81660156 41.78222656 93.14257812 C39.82417514 86.00064535 37.44918537 78.98620088 35 72 C34.34 72 33.68 72 33 72 C32.773125 71.154375 32.54625 70.30875 32.3125 69.4375 C30.80761382 65.49613144 28.87296745 62.11238141 26 59 C25.34 59 24.68 59 24 59 C23.74476563 58.41734375 23.48953125 57.8346875 23.2265625 57.234375 C17.65582868 47.08641403 4.22890672 41.53492497 -6.23046875 37.8671875 C-26.57114121 32.08763091 -57.63777395 32.16668168 -75 46 Z " fill="#09AAF4" transform="translate(2987,458)"/>
<path d="M0 0 C3.31601375 3.01032911 6.18754749 6.24823946 8.94921875 9.76953125 C9.79419922 10.84267578 9.79419922 10.84267578 10.65625 11.9375 C30.33453227 38.45653953 33.11727982 70.10877426 33.07861328 102.05981445 C33.07997117 103.96171095 33.08175327 105.86360719 33.08392334 107.76550293 C33.08844757 112.88648518 33.08672998 118.00744709 33.08354425 123.12842965 C33.08099942 128.49709389 33.08336364 133.86575647 33.08493042 139.23442078 C33.08674389 148.2326997 33.08436529 157.23097038 33.07958984 166.22924805 C33.07412727 176.64278547 33.07592758 187.05630338 33.08141625 197.46984035 C33.08594523 206.4203843 33.08659964 215.37092237 33.08397758 224.3214671 C33.08241638 229.66394858 33.08221721 235.00642086 33.08551407 240.34890175 C33.08839037 245.35829466 33.08642161 250.36766216 33.08061981 255.37705231 C33.07929183 257.2197967 33.07968696 259.06254322 33.08188248 260.90528679 C33.08459196 263.40903997 33.08121563 265.91271031 33.07620239 268.41645813 C33.07843311 269.15494863 33.08066384 269.89343914 33.08296216 270.65430814 C33.06337006 275.65537994 33.06337006 275.65537994 31.94921875 276.76953125 C30.38922827 276.86800092 28.82481331 276.89751743 27.26171875 276.89892578 C26.26398438 276.90207794 25.26625 276.9052301 24.23828125 276.90847778 C23.15289063 276.90645355 22.0675 276.90442932 20.94921875 276.90234375 C19.29019531 276.90377884 19.29019531 276.90377884 17.59765625 276.90524292 C15.25390567 276.90592492 12.91015322 276.90406929 10.56640625 276.89990234 C6.96480087 276.89455439 3.36332022 276.89984672 -0.23828125 276.90625 C-2.50911486 276.90558922 -4.77994839 276.90430807 -7.05078125 276.90234375 C-8.13617187 276.90436798 -9.2215625 276.90639221 -10.33984375 276.90847778 C-11.33757812 276.90532562 -12.3353125 276.90217346 -13.36328125 276.89892578 C-14.24628906 276.89813019 -15.12929687 276.89733459 -16.0390625 276.89651489 C-18.05078125 276.76953125 -18.05078125 276.76953125 -19.05078125 275.76953125 C-19.15642911 273.34147852 -19.19682849 270.94144437 -19.19554138 268.51257324 C-19.19906823 267.74375494 -19.20259507 266.97493663 -19.20622879 266.1828208 C-19.21697034 263.58606731 -19.2206064 260.98935043 -19.22436523 258.39257812 C-19.23066702 256.53826236 -19.23743239 254.68394813 -19.24462891 252.82963562 C-19.25933513 248.82342342 -19.27104581 244.8172172 -19.28057671 240.81098938 C-19.29601446 234.46327982 -19.31996934 228.11562038 -19.34547424 221.76794434 C-19.41669705 203.71235327 -19.47621858 185.65673223 -19.52758789 167.60107422 C-19.55600764 157.6385695 -19.59146165 147.67611338 -19.63424164 137.71365976 C-19.66085256 131.41861866 -19.67885789 125.12363257 -19.69027889 118.82854652 C-19.69948887 114.88457744 -19.71689076 110.94067416 -19.73645782 106.99674416 C-19.7438518 105.18493003 -19.74800938 103.37309892 -19.74845314 101.56126976 C-19.75843069 78.99633726 -20.87470117 55.86408827 -36.05078125 37.76953125 C-36.05078125 37.10953125 -36.05078125 36.44953125 -36.05078125 35.76953125 C-37.04078125 35.43953125 -38.03078125 35.10953125 -39.05078125 34.76953125 C-39.05078125 34.10953125 -39.05078125 33.44953125 -39.05078125 32.76953125 C-39.58316406 32.51042969 -40.11554688 32.25132812 -40.6640625 31.984375 C-42.43460712 31.08316489 -44.1785479 30.12928069 -45.90625 29.1484375 C-64.77373733 18.86311322 -86.94532262 18.59496015 -107.44433594 24.45361328 C-116.90074463 27.62963967 -125.20974356 32.40311013 -133.390625 38.046875 C-136.05078125 39.76953125 -136.05078125 39.76953125 -138.05078125 39.76953125 C-138.05078125 40.42953125 -138.05078125 41.08953125 -138.05078125 41.76953125 C-139.6328125 43.109375 -139.6328125 43.109375 -141.86328125 44.70703125 C-143.59459431 46.05845265 -145.32342537 47.41305553 -147.05078125 48.76953125 C-147.99665037 49.45142234 -148.94251949 50.13331343 -149.91705132 50.83586788 C-154.60976236 54.7171174 -158.04232824 58.00668792 -159.05829239 64.19743538 C-159.57887307 69.70199208 -159.46736282 75.20116133 -159.37548828 80.72290039 C-159.38061694 82.83949425 -159.39059925 84.95608105 -159.40504456 87.07263184 C-159.4305696 92.79384789 -159.38889793 98.51281087 -159.33511209 104.2337563 C-159.29062797 110.22394006 -159.30934522 116.21391981 -159.32150269 122.20420837 C-159.33513842 133.53847782 -159.29380608 144.87183325 -159.23183143 156.20591491 C-159.15687671 170.37227782 -159.14953153 184.53854601 -159.14453125 198.70507812 C-159.14255681 203.65547216 -159.14017405 208.60586563 -159.13717651 213.55625916 C-159.13646932 214.75428569 -159.13576212 215.95231222 -159.13503349 217.18664259 C-159.12816098 225.47283287 -159.1016493 233.75882063 -159.06716919 242.04493713 C-159.05533548 245.31936809 -159.04385862 248.5938001 -159.03249931 251.86823273 C-159.02424591 253.92664581 -159.01418959 255.98505254 -159.00224113 258.04344749 C-158.98599818 260.84257053 -158.97564691 263.64165716 -158.96658325 266.44081116 C-158.96005804 267.26403604 -158.95353283 268.08726092 -158.94680989 268.93543202 C-158.93697211 274.54191296 -158.93697211 274.54191296 -160.05078125 276.76953125 C-167.29564676 276.79479864 -174.54050099 276.81236305 -181.78540039 276.82446289 C-184.25220158 276.82950481 -186.71899977 276.83633816 -189.18579102 276.8449707 C-192.72282654 276.8570425 -196.2598227 276.86276081 -199.796875 276.8671875 C-200.90727646 276.87234879 -202.01767792 276.87751007 -203.16172791 276.88282776 C-204.69320213 276.88294106 -204.69320213 276.88294106 -206.25561523 276.88305664 C-207.6112986 276.88638756 -207.6112986 276.88638756 -208.99436951 276.88978577 C-211.05078125 276.76953125 -211.05078125 276.76953125 -212.05078125 275.76953125 C-212.14863449 274.21186244 -212.17633643 272.64974386 -212.17662239 271.08900452 C-212.17923014 270.07047866 -212.18183789 269.0519528 -212.18452466 268.00256252 C-212.18117857 266.30371961 -212.18117857 266.30371961 -212.17776489 264.57055664 C-212.17932488 263.37801049 -212.18088487 262.18546434 -212.18249214 260.95678043 C-212.18580544 257.63169108 -212.18459294 254.3066577 -212.18150592 250.98157167 C-212.17925369 247.40143923 -212.18273054 243.82131187 -212.18548584 240.24118042 C-212.18994444 233.22179858 -212.18896667 226.20242741 -212.1860732 219.18304515 C-212.18381952 213.48084472 -212.18350649 207.77864728 -212.18459702 202.07644653 C-212.18475025 201.26646526 -212.18490348 200.45648399 -212.18506136 199.62195784 C-212.18538107 197.9767611 -212.18570528 196.33156437 -212.18603395 194.68636763 C-212.18888901 179.24072 -212.18560132 163.79507829 -212.18023358 148.34943163 C-212.17576552 135.08158427 -212.17654145 121.81374565 -212.18115234 108.54589844 C-212.18649766 93.15745493 -212.18861431 77.76901662 -212.18554008 62.38057232 C-212.18522151 60.74125354 -212.18490714 59.10193475 -212.18459702 57.46261597 C-212.18444274 56.65593147 -212.18428846 55.84924697 -212.18412951 55.01811749 C-212.18326423 49.3193789 -212.18472748 43.6206436 -212.18707657 37.92190552 C-212.18987429 30.98191294 -212.1891369 24.04193167 -212.18379582 17.10194039 C-212.18115843 13.55758685 -212.18015438 10.0132522 -212.18344498 6.46889877 C-212.1869503 2.63542366 -212.18277953 -1.19802015 -212.17776489 -5.03149414 C-212.17999561 -6.16405608 -212.18222634 -7.29661802 -212.18452466 -8.46350002 C-212.18191691 -9.48202588 -212.17930916 -10.50055174 -212.17662239 -11.54994202 C-212.17646004 -12.43604692 -212.17629769 -13.32215181 -212.17613041 -14.23510838 C-212.05078125 -16.23046875 -212.05078125 -16.23046875 -211.05078125 -17.23046875 C-208.5999517 -17.35625983 -206.17885305 -17.41911331 -203.7265625 -17.43359375 C-202.98754196 -17.43929382 -202.24852142 -17.4449939 -201.48710632 -17.4508667 C-199.91760699 -17.46033378 -198.34808763 -17.46685743 -196.77856445 -17.47070312 C-194.39042677 -17.48035899 -192.00316799 -17.51134376 -189.61523438 -17.54296875 C-188.08984886 -17.54950373 -186.56445718 -17.55475225 -185.0390625 -17.55859375 C-184.32945877 -17.57094055 -183.61985504 -17.58328735 -182.88874817 -17.5960083 C-178.1975036 -17.57521307 -175.03312405 -16.70030127 -171.05078125 -14.23046875 C-166.6785365 -9.31639677 -166.09533579 -4.33953259 -165.36328125 1.95703125 C-165.24299561 2.88797607 -165.12270996 3.8189209 -164.9987793 4.77807617 C-164.19881904 11.09230414 -163.48212475 17.41837003 -163.05078125 23.76953125 C-159.17747485 20.45961487 -155.36995518 17.15754142 -151.86328125 13.45703125 C-112.88024789 -25.87799339 -44.27578883 -36.25540564 0 0 Z " fill="#09AAF4" transform="translate(1407.05078125,476.23046875)"/>
<path d="M0 0 C0.88945312 0.75925781 1.77890625 1.51851563 2.6953125 2.30078125 C7.88322269 6.83117079 7.88322269 6.83117079 10 9 C10 9.66 10 10.32 10 11 C10.99 11.33 11.98 11.66 13 12 C14.60546875 13.99609375 14.60546875 13.99609375 16.1875 16.4375 C16.71730469 17.24058594 17.24710938 18.04367187 17.79296875 18.87109375 C19 21 19 21 19 23 C19.66 23 20.32 23 21 23 C21.38671875 23.90621094 21.7734375 24.81242187 22.171875 25.74609375 C22.69788305 26.97657687 23.22392665 28.20704479 23.75 29.4375 C24.53957443 31.28582195 25.32904113 33.13419136 26.1159668 34.98364258 C26.72677784 36.37681806 27.36281665 37.75910667 28.01879883 39.1315918 C30.62132169 44.64656275 32.09009606 49.95039747 33.1875 55.9375 C33.35185547 56.76701172 33.51621094 57.59652344 33.68554688 58.45117188 C36.06406041 70.84447923 36.14385756 83.00850865 36.12939453 95.57055664 C36.13075107 97.55067985 36.13253242 99.53080281 36.13470459 101.51092529 C36.13924621 106.86354167 36.13750357 112.21613869 36.1343255 117.56875539 C36.13178817 123.17233789 36.13414297 128.77591877 36.13571167 134.37950134 C36.137528 143.77831316 36.13513971 153.17711711 36.13037109 162.57592773 C36.12491525 173.45517195 36.12670285 184.33439746 36.1321975 195.21364123 C36.13672695 204.55475941 36.13738044 213.89587194 36.13475883 223.23699087 C36.13319696 228.81651106 36.13300014 234.39602244 36.13629532 239.97554207 C36.13917206 245.21141569 36.13720202 250.44726501 36.13140106 255.68313599 C36.13007301 257.60972999 36.13046834 259.53632602 36.13266373 261.46291924 C36.13537311 264.08074076 36.13199691 266.69848304 36.12698364 269.31629944 C36.12921436 270.08864601 36.13144509 270.86099258 36.13374341 271.65674359 C36.11415081 276.88584919 36.11415081 276.88584919 35 278 C30.84060164 278.28430022 26.66793501 278.23195699 22.5 278.25 C20.75976562 278.2809375 20.75976562 278.2809375 18.984375 278.3125 C4.05240907 278.38006546 4.05240907 278.38006546 -1.67163086 273.60571289 C-3.81041284 271.02038499 -4.30707421 267.88640182 -5.0625 264.6875 C-5.9610957 261.03898492 -6.85882593 257.42247258 -8.05078125 253.85546875 C-8.9614264 251.11603829 -9.58888147 248.45876939 -10.125 245.625 C-10.37636719 244.31402344 -10.37636719 244.31402344 -10.6328125 242.9765625 C-10.75398438 242.32429688 -10.87515625 241.67203125 -11 241 C-14.51415937 242.55276809 -17.18580112 244.66567032 -20.125 247.125 C-21.10082031 247.93066406 -22.07664062 248.73632812 -23.08203125 249.56640625 C-24.87885468 251.0649618 -26.66937649 252.57115857 -28.44921875 254.08984375 C-35.13620369 259.67154192 -42.30959722 263.98214034 -50 268 C-50.59973633 268.31356445 -51.19947266 268.62712891 -51.81738281 268.95019531 C-79.71297283 283.28063558 -113.91746159 287.86552301 -144.14453125 278.48828125 C-152.95569923 275.52301721 -160.86895676 272.09241883 -168 266 C-168.85980469 265.28714844 -169.71960937 264.57429688 -170.60546875 263.83984375 C-177.44082493 257.95356213 -183.75017677 251.99929291 -186 243 C-186.66 243 -187.32 243 -188 243 C-196.40422099 223.24794762 -198.39635445 199.3848171 -191 179 C-180.5509987 155.61156186 -158.6510123 142.38047357 -136 133 C-135.33871094 132.72269043 -134.67742188 132.44538086 -133.99609375 132.15966797 C-95.92083573 116.37641805 -54.60530648 114.14128874 -14 112 C-14.06086215 72.00496424 -14.06086215 72.00496424 -31 37 C-43.41337768 25.00980565 -59.33245325 21.95420105 -76 22 C-99.22093183 22.73275559 -118.44414082 31.65272573 -137.43359375 44.66796875 C-144.69940062 49.63028204 -150.97158328 53.22139458 -160 52 C-167.61105073 49.0726728 -171.64118596 44.6343894 -175.1875 37.5625 C-175.70086914 36.57926758 -175.70086914 36.57926758 -176.22460938 35.57617188 C-178.01242467 32.11510032 -179.6280948 28.65137845 -181 25 C-137.78992649 -17.01582525 -51.20234573 -44.72238081 0 0 Z M-46.75 147.6875 C-48.18880524 147.81996628 -48.18880524 147.81996628 -49.65667725 147.95510864 C-64.08371871 149.30671113 -77.99467657 151.17522915 -92 155 C-93.52706 155.38394283 -95.0543995 155.7667759 -96.58203125 156.1484375 C-112.33819665 160.25109789 -131.05208082 167.71722526 -140.0078125 182.1640625 C-140.33523437 182.76992188 -140.66265625 183.37578125 -141 184 C-141.38929688 184.66773438 -141.77859375 185.33546875 -142.1796875 186.0234375 C-146.37951469 194.50998486 -146.59517103 206.07820071 -144.14453125 215.17578125 C-138.30861947 229.57634171 -132.3923304 236.84875742 -118 243 C-97.64507651 250.36988609 -73.42451406 245.43315547 -54.375 236.6875 C-43.56739121 231.542264 -34.73115701 225.18093484 -26 217 C-23.94020428 215.18922967 -21.86665917 213.39573822 -19.7890625 211.60546875 C-19.19867187 211.07566406 -18.60828125 210.54585937 -18 210 C-17.31279373 209.42763107 -16.62558746 208.85526215 -15.91755676 208.26554871 C-13.47146086 205.37554331 -13.5088061 203.89467944 -13.5300293 200.14575195 C-13.52564095 198.37921013 -13.52564095 198.37921013 -13.52116394 196.57698059 C-13.53867203 195.31020981 -13.55618011 194.04343903 -13.57421875 192.73828125 C-13.57750687 191.43674606 -13.58079498 190.13521088 -13.58418274 188.79423523 C-13.59181179 186.04447903 -13.61234274 183.29524543 -13.64331055 180.5456543 C-13.68300182 177.01466147 -13.70093877 173.48400751 -13.71061993 169.95281696 C-13.7205714 166.58958267 -13.74081514 163.22646684 -13.76171875 159.86328125 C-13.76910568 158.59043777 -13.77649261 157.3175943 -13.78410339 156.00617981 C-13.80335625 154.25382271 -13.80335625 154.25382271 -13.82299805 152.46606445 C-13.83284225 151.43222122 -13.84268646 150.39837799 -13.85282898 149.33320618 C-13.73932039 147.04028269 -13.73932039 147.04028269 -15 146 C-25.45405158 145.07513 -36.33937858 146.72338874 -46.75 147.6875 Z " fill="#09AAF4" transform="translate(2487,475)"/>
<path d="M0 0 C0.73734375 0.51820313 1.4746875 1.03640625 2.234375 1.5703125 C2.81703125 2.04210937 3.3996875 2.51390625 4 3 C4 3.66 4 4.32 4 5 C4.54914063 5.1959375 5.09828125 5.391875 5.6640625 5.59375 C8.98876677 7.59524421 11.0534234 10.46018314 13.375 13.5 C14.10517334 14.44613159 14.10517334 14.44613159 14.85009766 15.41137695 C32.92454835 39.14955785 37.95367282 66.44411155 34.5390625 95.796875 C31.92066404 113.15619387 23.2217067 130.6168564 12 144 C11.34 144 10.68 144 10 144 C9.7421875 144.58265625 9.484375 145.1653125 9.21875 145.765625 C7.90165983 148.1802903 6.44911616 149.81740177 4.5 151.75 C3.8915625 152.36359375 3.283125 152.9771875 2.65625 153.609375 C1 155 1 155 -1 155 C-1 155.66 -1 156.32 -1 157 C-2.38598633 158.1574707 -2.38598633 158.1574707 -4.33203125 159.42578125 C-5.04222412 159.89032715 -5.75241699 160.35487305 -6.48413086 160.83349609 C-7.25249268 161.32156738 -8.02085449 161.80963867 -8.8125 162.3125 C-9.59568604 162.81088379 -10.37887207 163.30926758 -11.18579102 163.82275391 C-33.08438255 177.55817883 -59.67022539 182.61546998 -85.1875 177.75 C-87.46814043 177.20627116 -89.74043442 176.62555992 -92 176 C-93.01835937 175.7215625 -94.03671875 175.443125 -95.0859375 175.15625 C-117.96956923 168.18905504 -138.35470687 153.3859475 -151 133 C-151.51949219 132.20207031 -152.03898437 131.40414062 -152.57421875 130.58203125 C-163.25844431 113.65412727 -166.93325942 95.71202649 -167 76 C-167.00402832 75.24895996 -167.00805664 74.49791992 -167.01220703 73.72412109 C-166.92717964 51.38192363 -158.31496077 30.02986712 -144 13 C-143.31421875 12.15179688 -142.6284375 11.30359375 -141.921875 10.4296875 C-124.77408362 -9.83011046 -100.46969623 -20.99808371 -74.30859375 -23.7578125 C-46.98272017 -25.75805354 -20.96517803 -17.59251896 0 0 Z " fill="#07A9F4" transform="translate(224,299)"/>
<path d="M0 0 C18.48 0 36.96 0 56 0 C56 121.11 56 242.22 56 367 C115.07 367 174.14 367 235 367 C235 382.84 235 398.68 235 415 C157.45 415 79.9 415 0 415 C0 278.05 0 141.1 0 0 Z " fill="#07A9F4" transform="translate(839,338)"/>
<path d="M0 0 C0 33.33 0 66.66 0 101 C28.05 101 56.1 101 85 101 C85 113.54 85 126.08 85 139 C56.95 139.33 28.9 139.66 0 140 C0.09059533 172.25690132 0.09059533 172.25690132 0.20898438 204.51367188 C0.26344479 217.67047863 0.31485898 230.82724662 0.34643555 243.98413086 C0.36944808 253.56681345 0.4028825 263.14939409 0.44870156 272.73199576 C0.47258983 277.80338426 0.49134741 282.87467206 0.49761391 287.94611549 C0.50368464 292.72564514 0.52375615 297.50491725 0.55427551 302.28435135 C0.56302393 304.03256246 0.56678499 305.78080728 0.56500816 307.52903938 C0.55648199 319.79574125 0.70533495 331.26953695 8.96484375 341.0546875 C17.15173089 348.88015735 26.05494962 349.38980664 36.8203125 349.19921875 C43.49909391 348.95680807 48.12102888 347.12362622 53.84765625 343.76171875 C54.90134399 343.14768188 54.90134399 343.14768188 55.97631836 342.52124023 C57.38209209 341.68953204 58.77568652 340.83679489 60.15454102 339.96118164 C63.74492617 337.79135366 65.50362968 336.9873116 69.8203125 337.09765625 C75.02948094 338.57593378 77.20116909 341.59515943 79.8125 346.1875 C81 349 81 349 81 351 C81.66 351 82.32 351 83 351 C84.20570907 353.0536142 85.38906641 355.11555155 86.5625 357.1875 C86.90474609 357.76564453 87.24699219 358.34378906 87.59960938 358.93945312 C89.10335386 361.62796599 90.00348981 363.59750902 89.9765625 366.703125 C88.74444058 369.60107575 87.35643949 370.72592057 84.8125 372.5625 C84.05582031 373.12066406 83.29914062 373.67882812 82.51953125 374.25390625 C81.68808594 374.83011719 80.85664063 375.40632813 80 376 C79.08605469 376.64839844 78.17210938 377.29679687 77.23046875 377.96484375 C53.3970461 392.97961183 24.45424299 397.19160622 -2.85498047 391.50488281 C-19.56602878 387.57152885 -32.94856505 378.47531986 -42 364 C-48.69006435 351.65759335 -52.13952069 339.69368468 -52.15821838 325.63500977 C-52.16315636 324.83188166 -52.16809434 324.02875355 -52.17318195 323.20128822 C-52.18844368 320.53132949 -52.19688658 317.86139459 -52.20532227 315.19140625 C-52.21490971 313.2690663 -52.2249203 311.34672842 -52.23532104 309.4243927 C-52.26228228 304.22050024 -52.28333922 299.01659878 -52.30332303 293.81267548 C-52.32523694 288.3687528 -52.35259912 282.92485755 -52.37937927 277.48095703 C-52.42923322 267.1787336 -52.47419905 256.87649488 -52.51740164 246.57424164 C-52.56683648 234.84270134 -52.6217314 223.11118856 -52.67708123 211.37967491 C-52.7907892 187.25314231 -52.89765248 163.12658328 -53 139 C-54.63412842 139.02356567 -54.63412842 139.02356567 -56.30126953 139.04760742 C-60.36027575 139.10208978 -64.4192499 139.13641639 -68.47851562 139.16479492 C-70.23215173 139.17983995 -71.98575047 139.20028104 -73.73925781 139.22631836 C-76.26637009 139.26289121 -78.79298296 139.2797692 -81.3203125 139.29296875 C-82.48785568 139.31619453 -82.48785568 139.31619453 -83.6789856 139.33988953 C-88.51583879 139.34136997 -91.821482 138.70074944 -96 136 C-98.36008817 132.45986775 -98.23463644 130.98878045 -98.1953125 126.80078125 C-98.18781982 125.16749878 -98.18781982 125.16749878 -98.18017578 123.5012207 C-98.16196777 122.11894287 -98.14375977 120.73666504 -98.125 119.3125 C-98.08375 114.919375 -98.0425 110.52625 -98 106 C-82.82 104.02 -67.64 102.04 -52 100 C-47.27340883 71.3373523 -47.27340883 71.3373523 -43.59765625 42.53125 C-43.49155533 41.53462341 -43.38545441 40.53799683 -43.27613831 39.51116943 C-42.77345895 34.72897829 -42.30008188 29.94580334 -41.86254883 25.15722656 C-40.07201507 6.67016377 -40.07201507 6.67016377 -35 2 C-23.91397276 -1.69534241 -11.68569876 0 0 0 Z " fill="#09AAF4" transform="translate(2210,364)"/>
<path d="M0 0 C16.83 0 33.66 0 51 0 C52.62728033 1.62728033 52.12542931 3.43277957 52.12584114 5.68052673 C52.12844889 6.69905259 52.13105664 7.71757845 52.13374341 8.76696873 C52.13151268 9.89953067 52.12928196 11.03209261 52.12698364 12.19897461 C52.12854363 13.39152076 52.13010362 14.58406691 52.13171089 15.81275082 C52.13502419 19.13784017 52.13381169 22.46287355 52.13072467 25.78795958 C52.12847244 29.36809202 52.13194929 32.94821938 52.13470459 36.52835083 C52.13916319 43.54773267 52.13818542 50.56710384 52.13529195 57.5864861 C52.13303827 63.28868653 52.13272524 68.99088397 52.13381577 74.69308472 C52.133969 75.50306599 52.13412223 76.31304726 52.13428011 77.14757341 C52.13459982 78.79277015 52.13492403 80.43796688 52.1352527 82.08316362 C52.13810776 97.52881125 52.13482007 112.97445296 52.12945233 128.42009962 C52.12498427 141.68794698 52.1257602 154.9557856 52.13037109 168.22363281 C52.13571641 183.61207632 52.13783306 199.00051463 52.13475883 214.38895893 C52.13444026 216.02827771 52.13412589 217.6675965 52.13381577 219.30691528 C52.13358435 220.51694203 52.13358435 220.51694203 52.13334826 221.75141376 C52.13248298 227.45015235 52.13394623 233.14888765 52.13629532 238.84762573 C52.13909304 245.78761831 52.13835565 252.72759958 52.13301457 259.66759086 C52.13037718 263.2119444 52.12937313 266.75627905 52.13266373 270.30063248 C52.13616905 274.13410759 52.13199828 277.9675514 52.12698364 281.80102539 C52.12921436 282.93358733 52.13144509 284.06614927 52.13374341 285.23303127 C52.13113566 286.25155713 52.12852791 287.27008299 52.12584114 288.31947327 C52.12567879 289.20557817 52.12551644 290.09168306 52.12534916 291.00463963 C52 293 52 293 51 294 C34.17 294 17.34 294 0 294 C0 196.98 0 99.96 0 0 Z " fill="#07A9F4" transform="translate(1093,459)"/>
<path d="M0 0 C8.38884271 6.78856147 13.44977642 15.41029073 14.625 26.25 C15.0530765 36.31628382 12.24911878 45.42795645 5.8984375 53.359375 C-2.06556548 61.79931441 -11.23600101 66.0333325 -22.8125 66.375 C-34.50465749 66.02991896 -43.54664604 61.72921164 -51.58984375 53.23828125 C-54.13748603 50.1129423 -55.87134427 46.87771246 -57.3125 43.125 C-57.66828125 42.20332031 -58.0240625 41.28164063 -58.390625 40.33203125 C-61.18241095 30.61992844 -60.00761906 20.01368237 -55.3125 11.125 C-49.95207464 2.28100908 -42.42293412 -3.97726618 -32.4375 -6.875 C-20.68355347 -9.30113512 -9.74929609 -6.94295665 0 0 Z " fill="#09AAF4" transform="translate(1141.3125,337.875)"/>
<path d="M0 0 C0.66 0.33 1.32 0.66 2 1 C-3.61 6.61 -9.22 12.22 -15 18 C-15.66 17.67 -16.32 17.34 -17 17 C-15.29657414 15.09955869 -13.58752883 13.20471126 -11.875 11.3125 C-11.400625 10.78205078 -10.92625 10.25160156 -10.4375 9.70507812 C-7.18500869 6.12294242 -3.77952775 3.02250068 0 0 Z " fill="#51C4F7" transform="translate(96,296)"/>
<path d="M0 0 C0.66 0.33 1.32 0.66 2 1 C-2.62 5.62 -7.24 10.24 -12 15 C-12.66 14.67 -13.32 14.34 -14 14 C-10.84554667 10.12452876 -7.68847454 6.38940904 -4 3 C-3.34 3 -2.68 3 -2 3 C-2 2.34 -2 1.68 -2 1 C-1.34 0.67 -0.68 0.34 0 0 Z " fill="#56C4F7" transform="translate(2866,485)"/>
<path d="M0 0 C0.66 0.33 1.32 0.66 2 1 C1.06027344 1.92232422 1.06027344 1.92232422 0.1015625 2.86328125 C-0.71570312 3.67152344 -1.53296875 4.47976563 -2.375 5.3125 C-3.18710938 6.11300781 -3.99921875 6.91351563 -4.8359375 7.73828125 C-7.12604842 10.00009937 -7.12604842 10.00009937 -9 13 C-9.33 11.68 -9.66 10.36 -10 9 C-6.7 6.03 -3.4 3.06 0 0 Z " fill="#61C9F8" transform="translate(2316,491)"/>
<path d="M0 0 C0.66 0.33 1.32 0.66 2 1 C-1.3 4.3 -4.6 7.6 -8 11 C-8.66 10.67 -9.32 10.34 -10 10 C-8.90033225 8.70450101 -7.79508199 7.41373929 -6.6875 6.125 C-6.07261719 5.40570312 -5.45773438 4.68640625 -4.82421875 3.9453125 C-3 2 -3 2 0 0 Z " fill="#4DC0F7" transform="translate(2566,736)"/>
</svg>
